# xmcd
#
# Track frame offsets: 
#        150
#        9127
#        21155
#        33500
#        45137
#        60520
#        73632
#        87217
#        108222
#        121342
#        135822
#        166717
#        179995
#        190432
#        207647
#        229482
#
# Disc length: 3371 seconds
#
# Revision: 3
# Processed by: cddbd v1.5.1PL0 Copyright (c) Steve Scherf et al.
# Submitted via: ExactAudioCopy v0.95a5
#
DISCID=cf0d2910
DTITLE=Various Artist - Jazz Legends - Divas (Disk 2)
DYEAR=2002
DGENRE=Jazz
TTITLE0=Betty Carter - Lets Fall In Love
TTITLE1=Betty Carter and Ray Bryant - I Could Write A Book
TTITLE2=Betty Carter and Ray Bryant - The Way You Look Tonight
TTITLE3=Betty Carter and Ray Bryant - Tell Him I Said Hello
TTITLE4=Sarah Vaughan - Come Rain Or Come Shine
TTITLE5=Sarah Vaughan - Mean To Me
TTITLE6=Sarah Vaughan - Aint Misbehavin'
TTITLE7=Nina Simone - Baltimore
TTITLE8=Nina Simone - Thats All I Want (From You)
TTITLE9=Nina Simone - Rich Girl
TTITLE10=Marlina Shaw - Yu-Ma (Go Away Little Boy)
TTITLE11=Tuck and Patti - Up From The Skies
TTITLE12=Lambert, Hendricks and Ross - Twisted
TTITLE13=Lambert, Hendricks and Ross - Sermonette
TTITLE14=Branford Marsalis Quartet, Terence Blanchard, Cynda Williams 
TTITLE14=/ Harmen Blues
TTITLE15=Kyle Eastwood Featuring Diana King - Why Can't We Live Togeth
TTITLE15=er
EXTD=YEAR: 2002
EXTT0=
EXTT1=
EXTT2=
EXTT3=
EXTT4=
EXTT5=
EXTT6=
EXTT7=
EXTT8=
EXTT9=
EXTT10=
EXTT11=
EXTT12=
EXTT13=
EXTT14=
EXTT15=
PLAYORDER=
